<?xml version="1.0" standalone="no"?>
<!DOCTYPE svg PUBLIC "-//W3C//DTD SVG 20010904//EN"
 "http://www.w3.org/TR/2001/REC-SVG-20010904/DTD/svg10.dtd">
<svg version="1.0" xmlns="http://www.w3.org/2000/svg"
 width="900.000000pt" height="570.000000pt" viewBox="0 0 900.000000 570.000000"
 preserveAspectRatio="xMidYMid meet">

<g transform="translate(0.000000,570.000000) scale(0.100000,-0.100000)"
fill="#000000" stroke="none">
<path d="M4371 5504 c-207 -55 -361 -252 -361 -459 0 -259 223 -476 489 -475
144 1 257 46 352 141 228 228 169 607 -118 753 -110 55 -249 71 -362 40z"/>
<path d="M3043 5116 c-132 -32 -247 -125 -305 -245 -28 -57 -33 -79 -36 -163
-6 -147 30 -240 133 -337 140 -133 343 -163 520 -76 275 134 334 484 119 701
-109 108 -280 156 -431 120z"/>
<path d="M5761 5119 c-132 -26 -257 -123 -319 -248 -36 -73 -37 -78 -37 -186
0 -108 1 -113 37 -186 91 -184 298 -287 495 -245 198 41 333 179 365 371 49
294 -236 554 -541 494z"/>
<path d="M4406 4445 c-19 -15 -19 -16 4 -71 l23 -56 -17 -152 c-10 -83 -20
-162 -23 -176 -5 -21 2 -18 49 28 29 28 58 52 64 52 6 0 32 -22 58 -50 25 -27
46 -44 46 -38 0 6 -9 85 -21 175 l-21 163 25 54 c24 52 24 55 8 70 -24 22
-167 22 -195 1z"/>
<path d="M3955 4411 c-192 -35 -191 -35 -247 -70 -67 -42 -94 -90 -138 -243
-21 -73 -79 -276 -130 -451 -50 -175 -90 -321 -87 -323 9 -10 189 61 324 127
150 73 389 228 511 329 58 49 71 65 67 83 -5 24 -95 562 -95 571 0 10 -50 4
-205 -23z"/>
<path d="M4795 4139 l-51 -301 97 -78 c168 -135 376 -263 564 -347 114 -51
236 -95 243 -88 5 5 -83 321 -213 767 -71 241 -102 267 -386 317 -96 17 -181
31 -189 31 -12 0 -26 -66 -65 -301z"/>
<path d="M3061 4132 c-19 -13 -19 -14 4 -66 l23 -52 -29 -233 c-16 -128 -26
-238 -22 -245 3 -6 31 -46 61 -89 66 -95 65 -96 116 83 41 142 42 155 17 345
l-18 139 23 52 c20 45 21 54 9 64 -21 17 -159 18 -184 2z"/>
<path d="M5762 4127 c-14 -16 -14 -21 7 -64 l22 -46 -22 -172 -21 -172 38
-132 c20 -73 45 -142 54 -153 15 -19 18 -17 74 68 l59 88 -27 216 c-32 257
-32 260 -5 312 29 58 14 70 -86 72 -62 1 -80 -2 -93 -17z"/>
<path d="M2645 4099 c-88 -16 -173 -34 -190 -41 -39 -16 -102 -74 -122 -111
-8 -17 -68 -215 -133 -441 l-117 -411 -7 -383 c-8 -446 -8 -450 73 -525 49
-46 123 -77 181 -77 93 0 193 66 229 151 21 49 23 71 31 418 l8 366 32 110
c18 61 35 114 39 118 13 13 60 -105 66 -164 3 -29 2 -227 -3 -439 -9 -362 -10
-388 -31 -443 -26 -65 -108 -162 -165 -192 l-36 -20 0 -825 c0 -809 1 -826 21
-870 26 -59 53 -86 114 -118 97 -51 229 -29 305 49 68 71 64 20 70 913 l5 808
42 38 43 38 -14 39 c-41 117 -86 314 -111 493 -12 86 -35 441 -39 605 l-1 39
102 21 102 20 -104 144 c-57 80 -107 156 -110 170 -3 14 -23 134 -45 266 -48
288 -47 285 -63 284 -6 -1 -84 -14 -172 -30z"/>
<path d="M6170 4123 c0 -4 -22 -134 -48 -288 l-48 -280 -103 -143 c-57 -78
-102 -144 -100 -146 2 -2 47 -13 99 -23 l95 -19 0 -54 c-2 -143 -26 -526 -40
-620 -21 -136 -60 -309 -94 -420 l-28 -88 29 -16 c60 -36 58 -2 58 -849 0
-883 -3 -847 79 -928 46 -47 120 -79 181 -79 92 0 195 66 234 150 21 44 21 57
24 866 l3 822 -50 31 c-66 43 -118 101 -149 169 -31 69 -39 188 -43 632 -2
265 -1 300 16 346 10 29 25 61 35 73 15 22 17 18 53 -111 l36 -133 6 -345 c4
-213 11 -360 18 -385 7 -24 31 -60 62 -92 39 -40 62 -55 108 -68 135 -39 275
33 318 163 9 28 10 133 5 426 -8 442 9 338 -130 816 -35 124 -76 266 -91 315
-49 172 -99 210 -330 250 -82 14 -162 28 -177 31 -16 3 -28 2 -28 -3z"/>
<path d="M3292 983 c3 -623 3 -628 25 -669 44 -82 145 -144 234 -144 32 0 131
31 126 39 -22 42 -50 116 -58 155 -5 27 -9 224 -9 437 l0 389 -51 56 c-66 73
-188 237 -228 308 -18 31 -35 56 -37 56 -3 0 -3 -282 -2 -627z"/>
<path d="M5698 1597 c-18 -42 -145 -222 -223 -315 l-84 -100 -3 -424 -3 -423
-27 -59 c-16 -32 -28 -62 -28 -66 0 -12 47 -29 97 -36 101 -13 209 44 255 136
l28 55 -2 625 c-2 344 -6 617 -10 607z"/>
<path d="M3800 692 l0 -320 28 -53 c65 -125 224 -180 358 -124 45 19 112 81
137 129 19 36 22 60 25 196 l2 155 -107 52 c-111 53 -281 160 -385 239 l-58
45 0 -319z"/>
<path d="M5160 979 c-65 -57 -271 -188 -392 -250 l-120 -61 4 -146 c4 -159 16
-200 77 -265 76 -83 224 -108 327 -55 57 30 105 80 131 136 15 32 18 80 21
355 2 174 0 317 -5 317 -4 -1 -24 -15 -43 -31z"/>
</g>
</svg>
