<?xml version="1.0" standalone="no"?>
<!DOCTYPE svg PUBLIC "-//W3C//DTD SVG 20010904//EN"
 "http://www.w3.org/TR/2001/REC-SVG-20010904/DTD/svg10.dtd">
<svg version="1.0" xmlns="http://www.w3.org/2000/svg"
 width="225.000000pt" height="225.000000pt" viewBox="0 0 225.000000 225.000000"
 preserveAspectRatio="xMidYMid meet">

<g transform="translate(0.000000,225.000000) scale(0.100000,-0.100000)"
fill="#000000" stroke="none">
<path d="M1405 2226 c-67 -29 -112 -115 -101 -190 14 -84 93 -156 174 -156 65
0 138 45 168 103 16 30 21 100 9 138 -30 96 -153 147 -250 105z"/>
<path d="M2050 2140 c-13 -8 -16 -57 -20 -311 l-5 -301 -59 -24 c-33 -13 -61
-23 -62 -21 -2 1 -23 54 -48 116 -25 62 -57 129 -71 147 -29 37 -83 70 -95 57
-4 -4 -23 -53 -42 -108 l-35 -100 43 -270 c50 -311 52 -330 25 -345 -12 -6
-96 -10 -205 -10 -181 0 -186 0 -200 23 -11 17 -12 33 -6 67 14 70 12 75 -26
94 -20 9 -38 15 -40 13 -3 -3 -73 -350 -74 -364 0 -1 7 -9 16 -17 9 -10 33
-16 60 -16 l44 0 0 -340 c0 -363 3 -385 49 -410 30 -16 94 -12 117 8 43 34 44
47 44 401 l0 341 25 0 25 0 0 -351 0 -351 29 -29 c41 -41 98 -41 143 0 l33 29
3 351 3 351 42 0 c49 0 67 13 67 48 0 13 -27 165 -60 339 -33 174 -59 318 -57
320 3 2 19 -35 36 -82 48 -125 80 -139 206 -85 38 17 71 30 72 30 2 0 3 -198
3 -440 0 -374 -2 -440 -14 -440 -42 0 -106 -88 -106 -145 l0 -25 171 0 171 0
-7 38 c-10 54 -38 95 -85 121 l-40 22 0 454 0 454 30 16 c16 8 34 24 40 34 23
45 1 103 -46 121 l-24 10 0 279 c0 241 -2 282 -16 295 -18 18 -32 20 -54 6z"/>
<path d="M600 1851 c-8 -15 14 -96 99 -373 l109 -353 -99 -5 c-61 -3 -103 -10
-111 -18 -10 -10 -14 -95 -16 -377 l-3 -365 -75 0 c-74 0 -76 1 -71 23 3 12
20 105 38 206 24 133 30 188 22 200 -9 14 -37 16 -210 19 -173 2 -202 0 -213
-13 -11 -14 -8 -46 19 -198 18 -100 35 -194 38 -209 5 -27 4 -28 -36 -28 -31
0 -48 -6 -66 -25 -22 -21 -25 -33 -25 -103 0 -89 14 -112 67 -112 28 0 32 4
42 45 13 50 59 108 105 132 45 23 123 21 173 -5 50 -26 91 -82 99 -134 l7 -38
97 0 98 0 11 45 c13 50 59 108 105 132 45 23 123 21 173 -5 50 -26 91 -82 99
-134 6 -35 9 -38 41 -38 19 0 43 5 54 10 18 10 19 24 19 294 l0 284 -30 6
c-17 3 -42 18 -55 32 -32 35 -32 71 0 234 14 69 25 128 25 132 0 4 -50 9 -111
10 l-111 3 -112 360 c-61 198 -115 366 -119 373 -13 19 -65 15 -77 -7z"/>
<path d="M1350 1816 c0 -3 16 -50 36 -106 l37 -101 60 3 61 3 37 103 37 102
-134 0 c-74 0 -134 -2 -134 -4z"/>
<path d="M1234 1791 c-21 -13 -63 -70 -127 -173 -116 -187 -117 -190 -117
-226 0 -43 28 -63 214 -152 184 -88 207 -92 246 -43 24 31 26 70 4 101 -9 13
-67 47 -130 77 -63 29 -114 58 -114 63 0 6 20 43 45 83 49 79 53 80 30 5 -19
-62 -19 -63 3 -69 9 -2 24 -8 33 -11 14 -6 18 4 24 69 6 72 5 83 -31 186 -21
60 -41 109 -44 109 -3 0 -19 -9 -36 -19z"/>
<path d="M242 233 c-41 -20 -62 -59 -62 -114 0 -33 6 -47 34 -75 28 -28 42
-34 76 -34 136 0 177 175 54 226 -43 18 -61 17 -102 -3z m86 -75 c21 -21 14
-57 -13 -70 -38 -17 -74 19 -57 57 13 27 49 34 70 13z"/>
<path d="M832 233 c-41 -20 -62 -59 -62 -114 0 -33 6 -47 34 -75 28 -28 42
-34 75 -34 57 0 95 22 116 66 29 62 3 133 -61 160 -43 18 -61 17 -102 -3z m86
-75 c21 -21 14 -57 -13 -70 -22 -10 -29 -9 -47 10 -19 18 -20 25 -10 47 13 27
49 34 70 13z"/>
<path d="M1910 135 c0 -81 1 -85 27 -102 19 -13 53 -18 123 -21 82 -4 104 -1
144 16 l46 21 0 85 0 86 -170 0 -170 0 0 -85z"/>
</g>
</svg>
