<?xml version="1.0" standalone="no"?>
<!DOCTYPE svg PUBLIC "-//W3C//DTD SVG 20010904//EN"
 "http://www.w3.org/TR/2001/REC-SVG-20010904/DTD/svg10.dtd">
<svg version="1.0" xmlns="http://www.w3.org/2000/svg"
 width="1122.000000pt" height="1122.000000pt" viewBox="0 0 1122.000000 1122.000000"
 preserveAspectRatio="xMidYMid meet">

<g transform="translate(0.000000,1122.000000) scale(0.100000,-0.100000)"
fill="#000000" stroke="none">
<path d="M5215 10709 c-872 -69 -1708 -356 -2432 -836 -97 -64 -114 -72 -131
-62 -16 10 -31 8 -84 -15 -56 -24 -69 -34 -94 -78 -25 -44 -120 -133 -240
-228 -18 -14 -87 -72 -155 -130 -68 -58 -140 -117 -159 -130 -19 -14 -46 -35
-60 -47 -28 -24 -63 -29 -126 -18 -35 6 -44 4 -63 -16 -13 -14 -21 -36 -21
-59 0 -46 -14 -60 -56 -53 -22 4 -42 0 -60 -11 -45 -30 -444 -368 -464 -394
-37 -46 -24 -94 46 -173 82 -94 110 -97 198 -26 73 60 207 172 285 239 l66 58
178 0 c97 0 177 3 177 6 0 3 -32 43 -71 90 -60 70 -69 87 -59 99 8 9 11 30 7
54 -3 22 -2 42 1 46 3 3 7 16 9 28 2 12 11 28 21 35 9 7 25 19 36 28 15 13 20
14 31 2 15 -17 198 -236 247 -297 l37 -46 70 4 c59 2 80 -2 127 -23 l56 -26
2183 0 2184 0 3 146 c3 146 3 146 31 170 27 23 33 24 193 24 219 0 235 9 292
155 56 142 56 143 -93 295 -174 178 -179 149 72 402 207 208 232 225 284 198
13 -7 76 -63 139 -125 69 -68 127 -116 144 -121 15 -3 46 -1 68 5 62 19 181
76 196 94 16 19 18 17 -143 107 -651 361 -1370 575 -2120 630 -164 12 -592 11
-750 -1z"/>
<path d="M10142 5615 l0 -2340 69 140 c254 517 415 1106 481 1755 20 193 16
736 -6 945 -64 609 -231 1206 -475 1700 l-69 140 0 -2340z"/>
<path d="M990 7808 c-230 -485 -388 -1027 -454 -1563 -49 -393 -49 -867 0
-1260 68 -547 237 -1118 473 -1600 l49 -100 1 2328 c1 1280 -1 2327 -3 2327
-1 0 -31 -60 -66 -132z"/>
<path d="M1955 7296 c-86 -39 -119 -139 -72 -220 45 -80 12 -76 727 -76 721 0
684 -4 728 81 39 75 20 150 -52 203 -27 21 -38 21 -664 23 -516 2 -643 0 -667
-11z"/>
<path d="M1940 6601 c-101 -53 -104 -192 -6 -265 27 -21 37 -21 676 -21 639 0
649 0 676 21 72 53 91 128 52 203 -44 85 -7 81 -728 81 -599 0 -637 -1 -670
-19z"/>
<path d="M1930 5908 c-93 -64 -91 -191 4 -262 27 -21 37 -21 676 -21 639 0
649 0 676 21 95 71 97 198 4 262 l-33 22 -647 0 -647 0 -33 -22z"/>
<path d="M1965 5238 c-126 -44 -140 -221 -22 -286 29 -16 83 -17 667 -17 584
0 638 1 667 17 120 66 104 243 -26 287 -45 15 -1242 14 -1286 -1z"/>
<path d="M4280 4575 l0 -25 235 0 235 0 0 25 0 25 -235 0 -235 0 0 -25z"/>
<path d="M4900 4575 l0 -25 235 0 235 0 0 25 0 25 -235 0 -235 0 0 -25z"/>
<path d="M5530 4575 l0 -25 235 0 235 0 0 25 0 25 -235 0 -235 0 0 -25z"/>
<path d="M6160 4575 l0 -25 235 0 235 0 0 25 0 25 -235 0 -235 0 0 -25z"/>
<path d="M6780 4575 l0 -25 238 0 238 0 0 25 0 25 -238 0 -238 0 0 -25z"/>
<path d="M8030 4575 l0 -25 235 0 235 0 0 25 0 25 -235 0 -235 0 0 -25z"/>
<path d="M8650 4575 l0 -25 235 0 235 0 0 25 0 25 -235 0 -235 0 0 -25z"/>
<path d="M1955 4546 c-86 -38 -119 -139 -72 -220 44 -77 33 -76 550 -76 491 0
486 -1 534 52 67 72 38 206 -53 244 -48 20 -914 20 -959 0z"/>
<path d="M7548 4553 c57 -2 147 -2 200 0 53 1 7 3 -103 3 -110 0 -154 -2 -97
-3z"/>
<path d="M4477 4320 c-70 -12 -152 -55 -187 -98 -64 -78 -87 -201 -55 -293 34
-96 105 -152 275 -219 120 -48 170 -81 170 -113 0 -45 -46 -77 -111 -77 -66 0
-110 32 -128 92 -8 26 -20 49 -26 52 -17 6 -197 -33 -214 -47 -9 -8 -12 -25
-8 -59 14 -116 92 -215 203 -258 112 -43 309 -30 404 28 138 85 189 246 121
380 -41 80 -107 126 -305 213 -111 48 -136 67 -136 104 0 38 40 59 100 53 59
-6 85 -26 111 -85 22 -51 23 -51 149 -22 59 14 94 27 97 37 11 27 -15 123 -47
172 -55 86 -155 136 -287 144 -43 3 -100 1 -126 -4z"/>
<path d="M5291 4319 c-117 -23 -198 -109 -220 -233 -13 -76 -15 -755 -2 -775
7 -11 35 -14 115 -14 59 0 110 3 114 7 4 4 9 47 11 94 1 48 8 93 13 100 14 16
169 17 186 0 7 -7 12 -43 12 -93 0 -44 4 -86 9 -93 9 -15 214 -23 228 -8 4 4
8 179 8 389 0 339 -2 389 -18 440 -20 65 -71 129 -126 156 -75 38 -222 51
-330 30z m203 -280 c26 -20 26 -22 26 -144 0 -146 0 -145 -105 -145 -105 0
-105 0 -105 143 0 67 4 127 8 133 26 39 133 47 176 13z"/>
<path d="M6991 4319 c-117 -23 -198 -109 -220 -233 -16 -93 -15 -772 2 -783
14 -9 216 -7 225 2 4 4 8 46 10 93 4 106 10 112 105 112 102 0 107 -5 107
-103 0 -45 4 -88 9 -96 7 -11 35 -14 115 -14 59 0 110 3 114 7 4 4 7 179 7
389 0 339 -2 389 -18 440 -20 65 -71 129 -126 156 -75 38 -222 51 -330 30z
m204 -284 c24 -23 25 -30 25 -144 0 -141 0 -141 -105 -141 -105 0 -105 0 -105
143 0 157 5 165 108 166 43 1 57 -3 77 -24z"/>
<path d="M8751 4319 c-117 -23 -198 -109 -220 -233 -16 -93 -15 -772 2 -783
14 -9 216 -7 225 2 4 4 8 46 10 93 4 106 10 112 105 112 102 0 107 -5 107
-103 0 -45 4 -88 9 -96 7 -11 35 -14 115 -14 59 0 110 3 114 7 4 4 7 179 7
389 0 339 -2 389 -18 440 -20 65 -71 129 -126 156 -75 38 -222 51 -330 30z
m204 -284 c24 -23 25 -30 25 -144 0 -141 0 -141 -105 -141 -105 0 -105 0 -105
143 0 157 5 165 108 166 43 1 57 -3 77 -24z"/>
<path d="M5917 4295 c-15 -15 -17 -61 -17 -495 0 -422 2 -480 16 -494 12 -12
37 -16 105 -16 133 0 129 -5 129 153 0 160 4 170 73 165 l48 -3 75 -145 c42
-80 83 -151 92 -157 19 -16 169 -18 206 -3 42 16 33 51 -54 213 l-81 149 39
42 c58 63 77 128 76 261 -1 139 -23 205 -89 263 -74 65 -118 74 -376 80 -201
4 -227 2 -242 -13z m443 -257 c15 -17 20 -35 20 -78 0 -85 -18 -100 -123 -100
-51 0 -88 5 -95 12 -7 7 -12 42 -12 88 0 46 5 81 12 88 7 7 44 12 95 12 72 0
85 -3 103 -22z"/>
<path d="M7612 4288 c-16 -16 -17 -949 -2 -979 10 -17 22 -19 110 -19 76 0
102 4 114 16 14 13 16 51 16 260 0 156 4 244 10 244 6 0 10 -1 10 -3 0 -19
205 -495 217 -504 23 -17 254 -18 271 -1 9 9 12 131 12 489 0 263 -3 484 -6
493 -5 13 -25 16 -115 16 -97 0 -109 -2 -119 -19 -6 -12 -10 -114 -10 -262 0
-153 -4 -239 -9 -233 -6 5 -53 114 -106 242 -52 129 -100 242 -105 253 -10 17
-23 19 -143 19 -90 0 -137 -4 -145 -12z"/>
<path d="M3790 3843 c1 -18 10 -35 25 -46 l25 -18 0 29 c0 26 -25 62 -43 62
-4 0 -7 -12 -7 -27z"/>
<path d="M3315 3797 c-62 -16 -103 -38 -132 -69 -74 -79 -76 -240 -4 -321 15
-18 14 -20 -14 -40 -90 -65 -110 -108 -110 -232 0 -114 14 -152 82 -217 62
-60 123 -82 228 -83 76 0 98 4 141 25 49 24 51 25 65 7 14 -18 19 -19 134 -3
134 19 165 28 165 51 0 8 -25 49 -56 91 l-57 77 22 43 c28 60 47 177 33 208
-8 18 -21 24 -64 29 -29 4 -70 7 -91 7 l-38 0 27 35 c50 67 67 154 43 238 -14
51 -73 115 -128 140 -55 24 -178 31 -246 14z m241 -45 c158 -81 152 -301 -11
-384 -22 -11 -42 -22 -44 -24 -2 -1 21 -30 50 -64 59 -67 67 -65 68 18 l1 42
48 0 c26 0 64 -3 86 -7 l38 -6 -6 -58 c-8 -70 -22 -114 -48 -152 l-20 -27 62
-86 c34 -48 60 -87 58 -89 -2 -1 -56 -10 -122 -19 l-118 -16 -20 25 -19 24
-36 -25 c-109 -74 -293 -49 -382 52 -20 23 -43 60 -49 82 -18 59 -15 160 7
207 22 48 76 99 125 115 l35 11 -40 36 c-90 81 -85 255 10 322 73 53 246 65
327 23z m46 -394 c-7 -7 -12 -26 -12 -42 l-1 -31 -20 24 -20 24 28 18 c33 21
41 23 25 7z"/>
<path d="M3365 3607 c-4 -13 -5 -48 -3 -78 l3 -54 64 3 c35 1 66 3 67 5 2 2 5
34 6 72 l3 70 -67 3 c-64 3 -68 2 -73 -21z m105 -52 c0 -36 -3 -45 -17 -45
-10 0 -28 -3 -40 -6 -21 -6 -23 -3 -23 29 0 55 8 67 46 67 34 0 34 -1 34 -45z"/>
<path d="M3333 3243 c-9 -3 -13 -33 -13 -99 l0 -94 78 1 c133 2 132 -1 51 107
-66 87 -82 99 -116 85z m80 -87 c26 -35 47 -67 47 -70 0 -3 -25 -6 -55 -6
l-55 0 0 70 c0 39 4 70 8 70 5 0 29 -29 55 -64z"/>
<path d="M3869 3783 c-13 -16 -12 -17 4 -4 16 13 21 21 13 21 -2 0 -10 -8 -17
-17z"/>
<path d="M3909 3743 c-13 -16 -12 -17 4 -4 16 13 21 21 13 21 -2 0 -10 -8 -17
-17z"/>
<path d="M4304 3738 l-19 -23 23 19 c21 18 27 26 19 26 -2 0 -12 -10 -23 -22z"/>
<path d="M4354 3708 l-19 -23 23 19 c21 18 27 26 19 26 -2 0 -12 -10 -23 -22z"/>
<path d="M3944 3698 l-19 -23 23 19 c12 11 22 21 22 23 0 8 -8 2 -26 -19z"/>
<path d="M3979 3653 c-13 -16 -12 -17 4 -4 16 13 21 21 13 21 -2 0 -10 -8 -17
-17z"/>
<path d="M4509 3623 l-34 -38 38 34 c20 19 37 36 37 38 0 8 -8 0 -41 -34z"/>
<path d="M4559 3593 l-34 -38 38 34 c34 33 42 41 34 41 -2 0 -19 -17 -38 -37z"/>
<path d="M4009 3603 c-13 -16 -12 -17 4 -4 9 7 17 15 17 17 0 8 -8 3 -21 -13z"/>
<path d="M4624 3578 l-19 -23 23 19 c12 11 22 21 22 23 0 8 -8 2 -26 -19z"/>
<path d="M7894 3568 l-19 -23 23 19 c12 11 22 21 22 23 0 8 -8 2 -26 -19z"/>
<path d="M6204 3558 l-19 -23 23 19 c21 18 27 26 19 26 -2 0 -12 -10 -23 -22z"/>
<path d="M4034 3548 l-19 -23 23 19 c12 11 22 21 22 23 0 8 -8 2 -26 -19z"/>
<path d="M6225 3498 l-40 -43 43 40 c39 36 47 45 39 45 -2 0 -21 -19 -42 -42z"/>
<path d="M7909 3503 l-24 -28 28 24 c15 14 27 26 27 28 0 8 -8 1 -31 -24z"/>
<path d="M4054 3488 l-19 -23 23 19 c12 11 22 21 22 23 0 8 -8 2 -26 -19z"/>
<path d="M5814 3488 l-19 -23 23 19 c21 18 27 26 19 26 -2 0 -12 -10 -23 -22z"/>
<path d="M4970 3445 c-24 -25 -42 -45 -39 -45 3 0 25 20 49 45 24 25 42 45 39
45 -3 0 -25 -20 -49 -45z"/>
<path d="M6235 3428 l-50 -53 53 50 c48 46 57 55 49 55 -1 0 -25 -24 -52 -52z"/>
<path d="M7529 3443 l-34 -38 38 34 c34 33 42 41 34 41 -2 0 -19 -17 -38 -37z"/>
<path d="M7920 3435 c-24 -25 -42 -45 -39 -45 3 0 25 20 49 45 24 25 42 45 39
45 -3 0 -25 -20 -49 -45z"/>
<path d="M5364 3438 l-29 -33 33 29 c17 17 32 31 32 33 0 8 -8 1 -36 -29z"/>
<path d="M5405 3398 l-70 -73 73 70 c67 64 77 75 69 75 -1 0 -34 -33 -72 -72z"/>
<path d="M7054 3448 l-19 -23 23 19 c21 18 27 26 19 26 -2 0 -12 -10 -23 -22z"/>
<path d="M7095 3408 l-60 -63 63 60 c58 55 67 65 59 65 -1 0 -29 -28 -62 -62z"/>
<path d="M8814 3448 l-19 -23 23 19 c21 18 27 26 19 26 -2 0 -12 -10 -23 -22z"/>
<path d="M8855 3408 l-60 -63 63 60 c58 55 67 65 59 65 -1 0 -29 -28 -62 -62z"/>
<path d="M5829 3423 l-34 -38 38 34 c34 33 42 41 34 41 -2 0 -19 -17 -38 -37z"/>
<path d="M9611 3430 c-7 -17 -19 -29 -26 -27 -6 3 -110 -93 -231 -214 -202
-202 -222 -219 -254 -219 -34 0 -31 4 195 233 l230 232 -235 -232 c-216 -214
-238 -233 -270 -233 -34 0 -31 4 195 233 l230 232 -235 -232 c-216 -214 -238
-233 -270 -233 -35 0 -35 0 110 148 l145 147 -150 -147 c-135 -133 -154 -148
-185 -148 -35 0 -34 0 110 148 l145 147 -150 -147 c-135 -133 -154 -148 -185
-148 -35 0 -34 0 110 148 l145 147 -150 -147 c-135 -133 -154 -148 -185 -148
-35 0 -34 1 120 158 l155 157 -160 -157 c-145 -143 -164 -158 -195 -158 -34 0
-33 2 150 188 l185 187 -190 -187 c-174 -172 -193 -188 -225 -188 -34 0 -31 4
190 228 l225 227 -230 -227 c-211 -209 -233 -228 -265 -228 -35 0 -35 0 110
148 l145 147 -150 -147 c-135 -133 -154 -148 -185 -148 -35 0 -34 0 110 148
l145 147 -150 -147 c-135 -133 -154 -148 -185 -148 -35 0 -34 0 110 148 l145
147 -150 -147 c-135 -133 -154 -148 -185 -148 -35 0 -34 1 125 163 l160 162
-165 -162 c-150 -148 -168 -163 -200 -163 -34 0 -32 2 155 193 l190 192 -195
-192 c-178 -176 -198 -193 -230 -193 -35 0 -35 0 110 148 l145 147 -150 -147
c-135 -133 -154 -148 -185 -148 -35 0 -34 0 110 148 l145 147 -150 -147 c-135
-133 -154 -148 -185 -148 -35 0 -34 0 110 148 l145 147 -150 -147 c-135 -133
-154 -148 -185 -148 -35 0 -34 1 115 153 l150 152 -155 -152 c-140 -138 -159
-153 -190 -153 -34 0 -33 1 135 173 l170 172 -175 -172 c-159 -157 -178 -173
-210 -173 -34 0 -32 3 160 198 l195 197 -200 -197 c-183 -181 -203 -198 -235
-198 -35 0 -35 0 110 148 l145 147 -150 -147 c-135 -133 -154 -148 -185 -148
-35 0 -34 0 110 148 l145 147 -150 -147 c-135 -133 -154 -148 -185 -148 -35 0
-34 0 110 148 l145 147 -150 -147 c-135 -133 -154 -148 -185 -148 -35 0 -34 1
115 153 l150 152 -155 -152 c-140 -138 -159 -153 -190 -153 -34 0 -33 2 140
178 l175 177 -180 -177 c-164 -162 -183 -178 -215 -178 -35 0 -35 0 110 148
l145 147 -150 -147 c-135 -133 -154 -148 -185 -148 -35 0 -34 0 110 148 l145
147 -150 -147 c-135 -133 -154 -148 -185 -148 -35 0 -34 0 110 148 l145 147
-150 -147 c-135 -133 -154 -148 -185 -148 -35 0 -34 1 120 158 l155 157 -160
-157 c-145 -143 -164 -158 -195 -158 -34 0 -33 2 150 188 l185 187 -190 -187
c-174 -172 -193 -188 -225 -188 -34 0 -31 4 190 228 l225 227 -230 -227 c-211
-209 -233 -228 -265 -228 -35 0 -35 0 110 148 l145 147 -150 -147 c-135 -133
-154 -148 -185 -148 -35 0 -34 0 110 148 l145 147 -150 -147 c-135 -133 -154
-148 -185 -148 -35 0 -34 0 110 148 l145 147 -150 -147 c-135 -133 -154 -148
-185 -148 -35 0 -34 1 125 163 l160 162 -165 -162 c-150 -148 -169 -163 -200
-163 -35 0 -35 0 110 148 l145 147 -150 -147 c-135 -133 -154 -148 -185 -148
-35 0 -34 0 110 148 l145 147 -150 -147 c-135 -133 -154 -148 -185 -148 -35 0
-34 0 110 148 l145 147 -150 -147 c-135 -133 -154 -148 -185 -148 -35 0 -34 1
120 158 l155 157 -160 -157 c-145 -143 -164 -158 -195 -158 -34 0 -33 2 145
183 l180 182 -185 -182 c-169 -167 -188 -183 -220 -183 -34 0 -32 3 170 208
l205 207 -210 -207 c-193 -191 -213 -208 -245 -208 -34 0 -31 4 195 233 l230
232 -235 -232 c-216 -214 -238 -233 -270 -233 -35 0 -35 0 110 148 l145 147
-150 -147 c-135 -133 -154 -148 -185 -148 -35 0 -34 0 110 148 l145 147 -150
-147 c-135 -133 -154 -148 -185 -148 -35 0 -34 1 115 153 l150 152 -155 -152
c-140 -138 -159 -153 -190 -153 -35 0 -34 1 130 168 l165 167 -170 -167 c-154
-152 -173 -168 -205 -168 -35 0 -34 0 115 153 l150 152 -155 -152 c-140 -138
-159 -153 -190 -153 -35 0 -34 0 110 148 l145 147 -150 -147 c-135 -133 -154
-148 -185 -148 -35 0 -34 0 110 148 l145 147 -150 -147 c-135 -133 -154 -148
-185 -148 -35 0 -34 1 115 153 l150 152 -155 -152 c-140 -138 -159 -153 -190
-153 -34 0 -33 2 140 178 l175 177 -180 -177 c-164 -162 -183 -178 -215 -178
-34 0 -31 4 180 218 l215 217 -220 -217 c-202 -200 -223 -218 -255 -218 -35 0
-35 0 110 148 l145 147 -150 -147 c-135 -133 -154 -148 -185 -148 -35 0 -34 0
110 148 l145 147 -150 -147 c-135 -133 -154 -148 -185 -148 -35 0 -34 0 110
148 l145 147 -150 -147 c-135 -133 -154 -148 -185 -148 -35 0 -34 1 120 158
l155 157 -160 -157 c-145 -143 -164 -158 -195 -158 -34 0 -33 2 150 188 l185
187 -190 -187 c-173 -172 -193 -188 -225 -188 -34 0 -31 4 185 223 l220 222
-225 -222 c-207 -205 -228 -223 -260 -223 -34 0 -33 2 140 178 l175 177 -180
-177 c-164 -162 -183 -178 -215 -178 l-35 0 140 143 140 142 -145 -142 c-131
-129 -149 -143 -180 -143 l-35 0 135 138 135 137 -140 -137 c-126 -124 -144
-138 -175 -138 l-35 0 135 138 135 137 -140 -137 c-126 -124 -144 -138 -175
-138 -35 0 -35 0 105 143 l140 142 -145 -142 c-131 -129 -149 -143 -180 -143
-35 0 -34 0 110 148 l145 147 -150 -147 c-103 -102 -157 -148 -173 -148 -12 0
-22 6 -22 12 0 7 66 80 148 162 l147 150 -157 -152 c-87 -84 -164 -152 -172
-152 -8 0 -27 -21 -42 -47 -15 -27 -64 -86 -108 -132 -45 -46 -73 -81 -63 -78
9 4 17 3 17 -2 0 -5 -9 -11 -21 -14 -13 -3 -18 -10 -14 -17 5 -8 20 0 44 24
l37 36 2759 0 c2755 0 2760 0 2805 -21 60 -27 98 -64 126 -124 23 -49 24 -56
24 -342 l0 -293 629 0 c422 0 638 4 659 11 63 22 62 16 62 469 0 263 -4 418
-10 431 -27 49 -22 49 -729 49 -363 0 -667 3 -675 6 -13 5 -10 13 19 45 19 21
47 62 62 91 25 48 28 64 31 183 2 72 2 145 0 163 l-3 33 -14 -31z m-213 -277
c-167 -168 -186 -183 -218 -183 -34 0 -31 3 180 215 210 211 215 215 218 184
3 -30 -10 -46 -180 -216z m40 -40 c-129 -130 -146 -143 -178 -143 -34 0 -33 2
140 175 172 173 175 175 178 144 3 -30 -9 -44 -140 -176z m139 70 c-6 -66 -40
-120 -106 -170 -84 -64 -77 -34 14 60 l90 92 -100 -97 c-88 -86 -105 -98 -135
-98 -35 0 -35 0 100 135 74 74 136 135 139 135 2 0 1 -25 -2 -57z"/>
<path d="M4074 3428 l-19 -23 23 19 c21 18 27 26 19 26 -2 0 -12 -10 -23 -22z"/>
<path d="M4122 3399 c-29 -28 -52 -55 -50 -60 2 -5 27 18 56 51 29 33 52 60
50 60 -2 0 -27 -23 -56 -51z"/>
<path d="M6699 3413 c-13 -16 -12 -17 4 -4 9 7 17 15 17 17 0 8 -8 3 -21 -13z"/>
<path d="M8439 3393 l-34 -38 38 34 c34 33 42 41 34 41 -2 0 -19 -17 -38 -37z"/>
<path d="M9305 3378 l-50 -53 53 50 c48 46 57 55 49 55 -1 0 -25 -24 -52 -52z"/>
<path d="M7930 3363 l-55 -58 58 55 c31 30 57 56 57 57 0 8 -10 -1 -60 -54z"/>
<path d="M4137 3333 c-37 -36 -66 -69 -65 -74 2 -4 34 25 71 66 38 41 67 75
65 75 -2 0 -34 -30 -71 -67z"/>
<path d="M7529 3363 l-34 -38 38 34 c34 33 42 41 34 41 -2 0 -19 -17 -38 -37z"/>
<path d="M2723 3364 c-3 -8 -3 -61 -1 -117 4 -80 12 -122 36 -192 18 -49 33
-94 34 -100 2 -7 -414 -12 -1227 -15 -676 -3 -1238 -9 -1248 -14 -45 -22 -47
-41 -47 -472 l0 -406 34 -34 34 -34 571 0 571 0 0 293 c0 286 1 293 24 342 29
61 66 97 128 125 45 20 61 20 714 20 367 0 669 1 671 3 2 3 -11 17 -29 32 -54
46 -129 146 -160 213 -40 88 -58 173 -58 280 0 86 -1 92 -20 92 -11 0 -23 -7
-27 -16z"/>
<path d="M5829 3343 l-34 -38 38 34 c34 33 42 41 34 41 -2 0 -19 -17 -38 -37z"/>
<path d="M4153 3270 c-51 -50 -93 -96 -93 -102 0 -7 8 -4 18 7 10 11 54 57 97
103 43 45 77 82 74 82 -2 0 -46 -41 -96 -90z"/>
<path d="M4156 3194 c-70 -69 -125 -128 -122 -132 4 -3 12 1 19 9 8 8 64 67
127 132 62 64 111 117 109 117 -2 0 -62 -57 -133 -126z"/>
<path d="M3019 2723 c-13 -16 -12 -17 4 -4 9 7 17 15 17 17 0 8 -8 3 -21 -13z"/>
<path d="M3069 2693 c-13 -16 -12 -17 4 -4 9 7 17 15 17 17 0 8 -8 3 -21 -13z"/>
<path d="M3680 2665 c-18 -19 -36 -32 -40 -30 -4 2 -7 -2 -7 -10 0 -8 1 -15 2
-15 0 0 21 20 45 45 24 25 42 45 39 45 -3 0 -20 -16 -39 -35z"/>
<path d="M3126 2674 c-23 -23 -20 -30 4 -9 11 10 20 20 20 22 0 7 -9 2 -24
-13z"/>
<path d="M3179 2643 c-13 -16 -12 -17 4 -4 9 7 17 15 17 17 0 8 -8 3 -21 -13z"/>
<path d="M3565 2630 c-10 -11 -22 -17 -28 -13 -5 3 -7 1 -3 -5 3 -5 0 -13 -6
-15 -7 -3 -8 -6 -2 -6 5 -1 23 13 39 29 16 17 26 30 23 30 -3 0 -13 -9 -23
-20z"/>
<path d="M3210 2638 c0 -3 6 -11 14 -17 10 -9 17 -7 27 6 12 16 12 17 -2 6
-12 -10 -18 -10 -27 -1 -7 7 -12 9 -12 6z"/>
<path d="M3304 2608 l-19 -23 23 19 c12 11 22 21 22 23 0 8 -8 2 -26 -19z"/>
<path d="M3390 2615 c-7 -8 -16 -13 -19 -10 -4 2 -8 -3 -8 -11 0 -11 6 -9 24
8 13 12 23 23 23 25 0 7 -8 2 -20 -12z"/>
<path d="M3470 2615 c-7 -8 -16 -13 -19 -10 -4 2 -8 -3 -8 -11 0 -11 6 -9 24
8 13 12 23 23 23 25 0 7 -8 2 -20 -12z"/>
<path d="M3703 2530 c-45 -9 -117 -43 -147 -69 -29 -25 -63 -101 -75 -166 -14
-73 -15 -754 -1 -775 7 -12 32 -15 114 -15 57 0 108 4 113 8 4 5 10 48 12 95
1 48 8 93 13 100 13 15 151 17 179 2 16 -9 19 -22 19 -95 0 -114 4 -118 132
-113 74 2 101 7 109 18 6 10 8 154 6 395 -4 427 -8 452 -74 526 -43 48 -89 72
-161 88 -60 12 -176 13 -239 1z m202 -285 c24 -23 25 -30 25 -144 0 -141 0
-141 -105 -141 -105 0 -105 0 -105 143 0 67 4 127 8 133 15 22 48 33 100 34
43 0 57 -5 77 -25z"/>
<path d="M3774 2198 l-29 -33 33 29 c30 28 37 36 29 36 -2 0 -16 -15 -33 -32z"/>
<path d="M3839 2183 l-34 -38 38 34 c20 19 37 36 37 38 0 8 -8 0 -41 -34z"/>
<path d="M4550 2529 c-145 -28 -238 -129 -248 -269 -11 -164 63 -252 288 -340
122 -49 170 -81 170 -115 0 -67 -120 -100 -191 -52 -24 16 -39 37 -49 69 -8
26 -18 49 -21 53 -8 8 -201 -35 -218 -48 -9 -8 -12 -25 -8 -59 14 -116 92
-215 203 -258 84 -33 241 -34 336 -1 226 76 292 331 126 487 -46 43 -75 58
-301 162 -32 14 -63 34 -68 44 -29 54 12 93 91 86 59 -6 85 -26 111 -85 22
-51 31 -52 159 -20 79 21 85 24 88 50 5 44 -25 130 -62 178 -75 99 -248 149
-406 118z"/>
<path d="M5372 2529 c-58 -11 -139 -57 -167 -94 -56 -74 -59 -98 -62 -515 -2
-241 0 -391 6 -400 8 -12 33 -15 115 -15 57 0 108 4 113 8 4 5 10 48 12 95 1
48 8 93 13 100 13 15 151 17 179 2 16 -9 19 -22 19 -93 0 -45 5 -89 10 -97 7
-12 32 -15 115 -15 83 0 108 3 116 15 6 10 8 154 6 395 -4 427 -8 452 -74 526
-43 48 -89 72 -161 88 -60 13 -176 13 -240 0z m203 -284 c24 -23 25 -30 25
-144 0 -141 0 -141 -105 -141 -105 0 -105 0 -105 143 0 67 4 127 8 133 15 22
48 33 100 34 43 0 57 -5 77 -25z"/>
<path d="M5449 2193 l-34 -38 38 34 c34 33 42 41 34 41 -2 0 -19 -17 -38 -37z"/>
<path d="M5519 2183 l-34 -38 38 34 c34 33 42 41 34 41 -2 0 -19 -17 -38 -37z"/>
<path d="M7073 2530 c-125 -25 -197 -101 -222 -235 -14 -73 -15 -754 -1 -775
7 -12 32 -15 114 -15 57 0 108 4 113 8 4 5 10 48 12 95 1 48 8 93 13 100 13
15 151 17 179 2 16 -9 19 -22 19 -93 0 -45 5 -89 10 -97 7 -12 32 -15 115 -15
83 0 108 3 116 15 6 10 8 154 6 395 -4 427 -8 452 -74 526 -43 48 -89 72 -161
88 -60 12 -176 13 -239 1z m202 -285 c24 -23 25 -30 25 -144 0 -141 0 -141
-105 -141 -105 0 -105 0 -105 143 0 67 4 127 8 133 15 22 48 33 100 34 43 0
57 -5 77 -25z"/>
<path d="M7139 2203 l-24 -28 28 24 c15 14 27 26 27 28 0 8 -8 1 -31 -24z"/>
<path d="M7205 2188 l-40 -43 43 40 c39 36 47 45 39 45 -2 0 -21 -19 -42 -42z"/>
<path d="M8833 2530 c-125 -25 -197 -101 -222 -235 -13 -71 -15 -754 -2 -774
7 -11 35 -14 115 -14 59 0 110 3 114 7 4 4 9 47 11 94 1 48 8 93 13 100 14 16
169 17 186 0 7 -7 12 -43 12 -93 0 -44 4 -86 9 -93 9 -15 214 -23 228 -8 4 4
8 179 8 389 0 339 -2 389 -18 440 -20 65 -71 129 -126 156 -74 38 -222 51
-328 31z m202 -285 c24 -23 25 -30 25 -144 0 -141 0 -141 -105 -141 -105 0
-105 0 -105 143 0 67 4 127 8 133 15 22 48 33 100 34 43 0 57 -5 77 -25z"/>
<path d="M8899 2203 l-24 -28 28 24 c15 14 27 26 27 28 0 8 -8 1 -31 -24z"/>
<path d="M8965 2188 l-40 -43 43 40 c39 36 47 45 39 45 -2 0 -21 -19 -42 -42z"/>
<path d="M1817 2505 c-15 -15 -17 -61 -17 -495 0 -422 2 -480 16 -494 12 -12
37 -16 109 -16 127 0 125 -3 125 164 0 95 4 136 13 143 6 6 59 13 117 16 129
7 197 28 255 79 67 59 88 124 88 268 0 144 -21 209 -88 268 -74 65 -118 74
-376 80 -201 4 -227 2 -242 -13z m443 -255 c16 -16 20 -33 20 -80 0 -87 -16
-100 -123 -100 -51 0 -88 5 -95 12 -7 7 -12 42 -12 88 0 46 5 81 12 88 7 7 44
12 95 12 70 0 86 -3 103 -20z"/>
<path d="M2104 2208 l-29 -33 33 29 c30 28 37 36 29 36 -2 0 -16 -15 -33 -32z"/>
<path d="M2169 2193 l-34 -38 38 34 c20 19 37 36 37 38 0 8 -8 0 -41 -34z"/>
<path d="M2219 2163 c-13 -16 -12 -17 4 -4 9 7 17 15 17 17 0 8 -8 3 -21 -13z"/>
<path d="M2627 2505 c-15 -15 -17 -61 -17 -495 0 -422 2 -480 16 -494 12 -12
37 -16 105 -16 134 0 129 -6 129 158 0 94 4 142 12 150 7 7 33 12 59 12 l47 0
42 -82 c64 -124 112 -212 123 -225 12 -16 189 -18 218 -3 33 18 22 58 -61 213
l-80 149 38 43 c58 62 77 127 76 260 -1 139 -23 205 -89 263 -74 65 -118 74
-376 80 -201 4 -227 2 -242 -13z m429 -243 c39 -25 47 -134 14 -170 -18 -19
-31 -22 -105 -22 -100 0 -105 5 -105 100 0 95 6 100 103 100 45 0 87 -4 93 -8z"/>
<path d="M2914 2218 l-19 -23 23 19 c21 18 27 26 19 26 -2 0 -12 -10 -23 -22z"/>
<path d="M2965 2188 l-40 -43 43 40 c39 36 47 45 39 45 -2 0 -21 -19 -42 -42z"/>
<path d="M3024 2168 l-19 -23 23 19 c21 18 27 26 19 26 -2 0 -12 -10 -23 -22z"/>
<path d="M5997 2505 c-15 -15 -17 -61 -17 -495 0 -422 2 -480 16 -494 12 -12
37 -16 105 -16 134 0 129 -6 129 158 0 94 4 142 12 150 7 7 33 12 59 12 l47 0
77 -147 c43 -82 82 -154 87 -160 13 -16 190 -18 219 -3 33 18 22 58 -61 213
l-80 149 38 43 c58 62 77 127 76 260 -1 139 -23 205 -89 263 -74 65 -118 74
-376 80 -201 4 -227 2 -242 -13z m443 -257 c15 -17 20 -35 20 -78 0 -86 -18
-100 -125 -100 -100 0 -105 5 -105 100 0 95 5 100 105 100 74 0 87 -3 105 -22z"/>
<path d="M6279 2223 c-13 -16 -12 -17 4 -4 16 13 21 21 13 21 -2 0 -10 -8 -17
-17z"/>
<path d="M6325 2188 l-40 -43 43 40 c39 36 47 45 39 45 -2 0 -21 -19 -42 -42z"/>
<path d="M6389 2173 l-24 -28 28 24 c15 14 27 26 27 28 0 8 -8 1 -31 -24z"/>
<path d="M7692 2498 c-9 -9 -12 -131 -12 -489 0 -421 2 -479 16 -493 12 -12
37 -16 105 -16 140 0 129 -22 129 270 0 139 4 250 9 250 5 0 41 -80 81 -177
40 -98 86 -211 102 -251 17 -40 38 -77 48 -82 27 -15 253 -13 268 2 9 9 12
131 12 489 0 263 -3 484 -6 493 -5 13 -25 16 -115 16 -97 0 -109 -2 -119 -19
-6 -12 -10 -114 -10 -262 0 -161 -3 -240 -10 -233 -5 5 -52 114 -104 240 -51
127 -99 241 -105 252 -11 21 -19 22 -144 22 -90 0 -137 -4 -145 -12z"/>
<path d="M4609 2233 c-13 -16 -12 -17 4 -4 16 13 21 21 13 21 -2 0 -10 -8 -17
-17z"/>
<path d="M4669 2213 l-24 -28 28 24 c25 23 32 31 24 31 -2 0 -14 -12 -28 -27z"/>
<path d="M4714 2178 l-19 -23 23 19 c12 11 22 21 22 23 0 8 -8 2 -26 -19z"/>
<path d="M4894 2118 l-29 -33 33 29 c30 28 37 36 29 36 -2 0 -16 -15 -33 -32z"/>
<path d="M4955 2098 l-40 -43 43 40 c39 36 47 45 39 45 -2 0 -21 -19 -42 -42z"/>
<path d="M4309 2013 c-13 -16 -12 -17 4 -4 16 13 21 21 13 21 -2 0 -10 -8 -17
-17z"/>
<path d="M4320 1945 c-24 -25 -42 -45 -39 -45 3 0 25 20 49 45 24 25 42 45 39
45 -3 0 -25 -20 -49 -45z"/>
<path d="M5909 1933 l-34 -38 38 34 c34 33 42 41 34 41 -2 0 -19 -17 -38 -37z"/>
<path d="M2420 1803 l-155 -158 158 155 c86 85 157 156 157 157 0 8 -16 -8
-160 -154z"/>
<path d="M3320 1903 l-55 -58 58 55 c53 50 62 60 54 60 -1 0 -27 -26 -57 -57z"/>
<path d="M4375 1918 l-40 -43 43 40 c39 36 47 45 39 45 -2 0 -21 -19 -42 -42z"/>
<path d="M6685 1908 l-50 -53 53 50 c48 46 57 55 49 55 -1 0 -25 -24 -52 -52z"/>
<path d="M7594 1938 l-19 -23 23 19 c21 18 27 26 19 26 -2 0 -12 -10 -23 -22z"/>
<path d="M4224 1928 l-19 -23 23 19 c12 11 22 21 22 23 0 8 -8 2 -26 -19z"/>
<path d="M6730 1873 l-65 -68 68 65 c62 60 72 70 64 70 -1 0 -32 -30 -67 -67z"/>
<path d="M8519 1903 l-34 -38 38 34 c34 33 42 41 34 41 -2 0 -19 -17 -38 -37z"/>
<path d="M3360 1863 l-65 -68 68 65 c62 60 72 70 64 70 -1 0 -32 -30 -67 -67z"/>
<path d="M5074 1898 l-19 -23 23 19 c12 11 22 21 22 23 0 8 -8 2 -26 -19z"/>
<path d="M7609 1873 l-34 -38 38 34 c34 33 42 41 34 41 -2 0 -19 -17 -38 -37z"/>
<path d="M5909 1853 l-34 -38 38 34 c34 33 42 41 34 41 -2 0 -19 -17 -38 -37z"/>
<path d="M2465 1768 l-110 -113 113 110 c104 102 117 115 109 115 -1 0 -52
-51 -112 -112z"/>
<path d="M4229 1853 l-24 -28 28 24 c25 23 32 31 24 31 -2 0 -14 -12 -28 -27z"/>
<path d="M4559 1863 c-13 -16 -12 -17 4 -4 16 13 21 21 13 21 -2 0 -10 -8 -17
-17z"/>
<path d="M4599 1823 l-34 -38 38 34 c20 19 37 36 37 38 0 8 -8 0 -41 -34z"/>
<path d="M6740 1803 l-55 -58 58 55 c53 50 62 60 54 60 -1 0 -27 -26 -57 -57z"/>
<path d="M8519 1823 l-34 -38 38 34 c34 33 42 41 34 41 -2 0 -19 -17 -38 -37z"/>
<path d="M3375 1798 l-50 -53 53 50 c28 27 52 51 52 52 0 8 -9 -1 -55 -49z"/>
<path d="M4655 1798 l-40 -43 43 40 c23 21 42 40 42 42 0 8 -9 0 -45 -39z"/>
<path d="M5079 1823 c-13 -16 -12 -17 4 -4 9 7 17 15 17 17 0 8 -8 3 -21 -13z"/>
<path d="M7609 1793 l-34 -38 38 34 c34 33 42 41 34 41 -2 0 -19 -17 -38 -37z"/>
<path d="M2210 1673 l-135 -138 138 135 c127 125 142 140 134 140 -1 0 -63
-62 -137 -137z"/>
<path d="M5909 1773 l-34 -38 38 34 c34 33 42 41 34 41 -2 0 -19 -17 -38 -37z"/>
<path d="M2265 1488 l-310 -313 313 310 c171 170 312 311 312 312 0 8 -27 -19
-315 -309z"/>
<path d="M2120 1745 c-24 -25 -42 -45 -39 -45 3 0 25 20 49 45 24 25 42 45 39
45 -3 0 -25 -20 -49 -45z"/>
<path d="M2160 1703 l-85 -88 88 85 c48 46 87 86 87 87 0 8 -11 -3 -90 -84z"/>
<path d="M6294 1758 l-29 -33 33 29 c17 17 32 31 32 33 0 8 -8 1 -36 -29z"/>
<path d="M7979 1763 l-24 -28 28 24 c15 14 27 26 27 28 0 8 -8 1 -31 -24z"/>
<path d="M2924 1748 l-29 -33 33 29 c30 28 37 36 29 36 -2 0 -16 -15 -33 -32z"/>
<path d="M4219 1763 c-13 -16 -12 -17 4 -4 16 13 21 21 13 21 -2 0 -10 -8 -17
-17z"/>
<path d="M6755 1738 l-40 -43 43 40 c23 21 42 40 42 42 0 8 -9 0 -45 -39z"/>
<path d="M8519 1743 l-34 -38 38 34 c34 33 42 41 34 41 -2 0 -19 -17 -38 -37z"/>
<path d="M3389 1733 l-34 -38 38 34 c20 19 37 36 37 38 0 8 -8 0 -41 -34z"/>
<path d="M5074 1738 l-19 -23 23 19 c12 11 22 21 22 23 0 8 -8 2 -26 -19z"/>
<path d="M7609 1713 l-34 -38 38 34 c34 33 42 41 34 41 -2 0 -19 -17 -38 -37z"/>
<path d="M2940 1685 c-24 -25 -42 -45 -39 -45 3 0 25 20 49 45 24 25 42 45 39
45 -3 0 -25 -20 -49 -45z"/>
<path d="M5909 1693 l-34 -38 38 34 c34 33 42 41 34 41 -2 0 -19 -17 -38 -37z"/>
<path d="M6305 1688 l-40 -43 43 40 c39 36 47 45 39 45 -2 0 -21 -19 -42 -42z"/>
<path d="M7989 1693 l-34 -38 38 34 c34 33 42 41 34 41 -2 0 -19 -17 -38 -37z"/>
<path d="M2305 1448 l-270 -273 273 270 c149 148 272 271 272 272 0 8 -24 -16
-275 -269z"/>
<path d="M1749 1693 c-13 -16 -12 -17 4 -4 9 7 17 15 17 17 0 8 -8 3 -21 -13z"/>
<path d="M4224 1688 l-19 -23 23 19 c12 11 22 21 22 23 0 8 -8 2 -26 -19z"/>
<path d="M9349 1693 c-13 -16 -12 -17 4 -4 16 13 21 21 13 21 -2 0 -10 -8 -17
-17z"/>
<path d="M6769 1673 l-24 -28 28 24 c15 14 27 26 27 28 0 8 -8 1 -31 -24z"/>
<path d="M8515 1658 l-40 -43 43 40 c39 36 47 45 39 45 -2 0 -21 -19 -42 -42z"/>
<path d="M3399 1663 l-24 -28 28 24 c25 23 32 31 24 31 -2 0 -14 -12 -28 -27z"/>
<path d="M2955 1618 l-60 -63 63 60 c58 55 67 65 59 65 -1 0 -29 -28 -62 -62z"/>
<path d="M3779 1643 l-34 -38 38 34 c20 19 37 36 37 38 0 8 -8 0 -41 -34z"/>
<path d="M3820 1605 c-41 -41 -72 -75 -69 -75 2 0 38 34 79 75 41 41 72 75 69
75 -2 0 -38 -34 -79 -75z"/>
<path d="M4845 1430 c-231 -231 -252 -250 -285 -250 l-35 0 145 148 145 147
-150 -147 c-135 -133 -154 -148 -185 -148 l-35 0 135 138 135 137 -140 -137
c-126 -124 -144 -138 -175 -138 l-35 0 135 138 135 137 -140 -137 c-126 -124
-144 -138 -175 -138 l-35 0 135 138 135 137 -140 -137 c-126 -124 -144 -138
-175 -138 -35 0 -34 0 110 148 l145 147 -150 -147 c-135 -133 -154 -148 -185
-148 -35 0 -34 1 120 158 l155 157 -160 -157 c-145 -143 -164 -158 -195 -158
-34 0 -33 1 135 173 l170 172 -175 -172 c-159 -157 -178 -173 -210 -173 -34 0
-32 2 155 193 l190 192 -195 -192 c-178 -176 -198 -193 -230 -193 -34 0 -31 3
175 213 l210 212 -215 -212 c-197 -195 -218 -213 -250 -213 -35 0 -35 0 110
148 l145 147 -150 -147 c-135 -133 -154 -148 -185 -148 -35 0 -34 0 110 148
l145 147 -150 -147 c-135 -133 -154 -148 -185 -148 -35 0 -34 1 115 153 l150
152 -155 -152 c-140 -138 -159 -153 -190 -153 -34 0 -33 1 135 173 l170 172
-175 -172 c-159 -157 -178 -173 -210 -173 -34 0 -31 3 175 213 l210 212 -215
-212 c-197 -195 -218 -213 -250 -213 -35 0 -35 0 110 148 l145 147 -150 -147
c-135 -133 -154 -148 -185 -148 -35 0 -34 0 110 148 l145 147 -150 -147 c-135
-133 -154 -148 -185 -148 -35 0 -34 0 110 148 l145 147 -150 -147 c-135 -133
-154 -148 -185 -148 -35 0 -34 1 120 158 l155 157 -160 -157 c-145 -143 -164
-158 -195 -158 -35 0 -34 1 120 158 l155 157 -160 -157 c-103 -102 -156 -161
-150 -167 21 -21 418 -213 567 -275 1142 -474 2448 -512 3615 -108 245 85 401
152 643 275 l215 109 145 152 145 151 -150 -147 c-135 -133 -154 -148 -185
-148 -35 0 -34 0 110 148 l145 147 -150 -147 c-135 -133 -154 -148 -185 -148
-35 0 -34 0 110 148 l145 147 -150 -147 c-135 -133 -154 -148 -185 -148 -35 0
-34 0 110 148 l145 147 -150 -147 c-135 -133 -154 -148 -185 -148 -35 0 -34 1
125 163 l160 162 -165 -162 c-150 -148 -168 -163 -200 -163 -34 0 -32 2 155
193 l190 192 -195 -192 c-178 -176 -198 -193 -230 -193 -34 0 -31 4 185 223
l220 222 -225 -222 c-207 -205 -228 -223 -260 -223 -35 0 -35 0 110 148 l145
147 -150 -147 c-135 -133 -154 -148 -185 -148 -35 0 -34 0 110 148 l145 147
-150 -147 c-135 -133 -154 -148 -185 -148 -35 0 -34 0 110 148 l145 147 -150
-147 c-135 -133 -154 -148 -185 -148 -35 0 -34 1 130 168 l165 167 -170 -167
c-154 -152 -173 -168 -205 -168 -35 0 -34 0 115 153 l150 152 -155 -152 c-140
-138 -159 -153 -190 -153 -35 0 -34 0 110 148 l145 147 -150 -147 c-135 -133
-154 -148 -185 -148 -35 0 -34 0 110 148 l145 147 -150 -147 c-135 -133 -154
-148 -185 -148 -35 0 -34 1 115 153 l150 152 -155 -152 c-140 -138 -159 -153
-190 -153 -34 0 -33 2 140 178 l175 177 -180 -177 c-164 -162 -183 -178 -215
-178 -34 0 -31 4 180 218 l215 217 -220 -217 c-202 -200 -223 -218 -255 -218
-35 0 -35 0 110 148 l145 147 -150 -147 c-135 -133 -154 -148 -185 -148 -35 0
-34 0 110 148 l145 147 -150 -147 c-135 -133 -154 -148 -185 -148 -35 0 -34 0
110 148 l145 147 -150 -147 c-135 -133 -154 -148 -185 -148 -35 0 -34 1 120
158 l155 157 -160 -157 c-145 -143 -164 -158 -195 -158 -35 0 -34 0 115 153
l150 152 -155 -152 c-140 -138 -159 -153 -190 -153 -35 0 -34 0 110 148 l145
147 -150 -147 c-135 -133 -154 -148 -185 -148 -35 0 -34 0 110 148 l145 147
-150 -147 c-135 -133 -154 -148 -185 -148 -35 0 -34 1 115 153 l150 152 -155
-152 c-140 -138 -159 -153 -190 -153 -34 0 -33 1 135 173 l170 172 -175 -172
c-159 -157 -178 -173 -210 -173 -34 0 -32 3 165 203 l200 202 -205 -202 c-188
-186 -208 -203 -240 -203 -34 0 -31 4 190 228 l225 227 -230 -227 c-211 -209
-233 -228 -265 -228 -35 0 -35 0 110 148 l145 147 -150 -147 c-135 -133 -154
-148 -185 -148 -35 0 -34 0 110 148 l145 147 -150 -147 c-135 -133 -154 -148
-185 -148 -35 0 -34 0 110 148 l145 147 -150 -147 c-135 -133 -154 -148 -185
-148 -35 0 -34 1 125 163 l160 162 -165 -162 c-150 -148 -168 -163 -200 -163
-34 0 -32 3 160 198 l195 197 -200 -197 c-183 -181 -203 -198 -235 -198 -35 0
-35 0 110 148 l145 147 -150 -147 c-135 -133 -154 -148 -185 -148 -35 0 -34 0
110 148 l145 147 -150 -147 c-135 -133 -154 -148 -185 -148 -35 0 -34 1 115
153 l150 152 -155 -152 c-140 -138 -159 -153 -190 -153 -35 0 -34 1 130 168
l165 167 -170 -167 c-154 -152 -173 -168 -205 -168 -34 0 -32 3 170 208 l205
207 -210 -207 c-192 -190 -213 -208 -245 -208 -35 0 -34 0 115 153 l150 152
-155 -152 c-140 -138 -159 -153 -190 -153 -35 0 -34 0 110 148 l145 147 -150
-147 c-135 -133 -154 -148 -185 -148 -35 0 -34 0 110 148 l145 147 -150 -147
c-135 -133 -154 -148 -185 -148 -35 0 -34 1 115 153 l150 152 -155 -152 c-140
-138 -159 -153 -190 -153 -34 0 -33 2 140 178 l175 177 -180 -177 c-164 -162
-183 -178 -215 -178 -34 0 -31 4 180 218 l215 217 -220 -217 c-202 -200 -223
-218 -255 -218 -34 0 -29 6 215 250 137 138 248 250 245 250 -3 0 -118 -112
-255 -250z"/>
<path d="M5455 1638 l-40 -43 43 40 c39 36 47 45 39 45 -2 0 -21 -19 -42 -42z"/>
<path d="M6320 1623 l-55 -58 58 55 c53 50 62 60 54 60 -1 0 -27 -26 -57 -57z"/>
<path d="M7144 1648 l-29 -33 33 29 c17 17 32 31 32 33 0 8 -8 1 -36 -29z"/>
<path d="M7185 1608 l-70 -73 73 70 c39 38 72 71 72 72 0 8 -11 -2 -75 -69z"/>
<path d="M8904 1648 l-29 -33 33 29 c17 17 32 31 32 33 0 8 -8 1 -36 -29z"/>
<path d="M8945 1608 l-70 -73 73 70 c39 38 72 71 72 72 0 8 -11 -2 -75 -69z"/>
<path d="M5485 1588 l-80 -83 83 80 c76 74 87 85 79 85 -1 0 -38 -37 -82 -82z"/>
<path d="M7609 1633 l-34 -38 38 34 c34 33 42 41 34 41 -2 0 -19 -17 -38 -37z"/>
<path d="M8000 1625 c-24 -25 -42 -45 -39 -45 3 0 25 20 49 45 24 25 42 45 39
45 -3 0 -25 -20 -49 -45z"/>
<path d="M4234 1618 l-29 -33 33 29 c17 17 32 31 32 33 0 8 -8 1 -36 -29z"/>
<path d="M5909 1613 l-34 -38 38 34 c34 33 42 41 34 41 -2 0 -19 -17 -38 -37z"/>
<path d="M1504 1608 l-29 -33 33 29 c30 28 37 36 29 36 -2 0 -16 -15 -33 -32z"/>
<path d="M1545 1568 l-70 -73 73 70 c67 64 77 75 69 75 -1 0 -34 -33 -72 -72z"/>
<path d="M1585 1528 l-110 -113 113 110 c61 60 112 111 112 112 0 8 -13 -5
-115 -109z"/>
<path d="M2025 1408 l-230 -233 233 230 c127 126 232 231 232 232 0 8 -21 -13
-235 -229z"/>
<path d="M2105 1408 l-230 -233 233 230 c127 126 232 231 232 232 0 8 -21 -13
-235 -229z"/>
<path d="M2345 1408 l-230 -233 233 230 c127 126 232 231 232 232 0 8 -21 -13
-235 -229z"/>
<path d="M9354 1618 l-19 -23 23 19 c21 18 27 26 19 26 -2 0 -12 -10 -23 -22z"/>
<path d="M9395 1578 l-60 -63 63 60 c58 55 67 65 59 65 -1 0 -29 -28 -62 -62z"/>
<path d="M9305 1408 l-230 -233 233 230 c216 214 237 235 229 235 -1 0 -106
-105 -232 -232z"/>
<path d="M1625 1488 l-140 -143 143 140 c132 130 147 145 139 145 -1 0 -65
-64 -142 -142z"/>
<path d="M6789 1613 c-13 -16 -12 -17 4 -4 16 13 21 21 13 21 -2 0 -10 -8 -17
-17z"/>
<path d="M8520 1585 c-24 -25 -42 -45 -39 -45 3 0 25 20 49 45 24 25 42 45 39
45 -3 0 -25 -20 -49 -45z"/>
<path d="M2815 1398 l-220 -223 223 220 c122 121 222 221 222 222 0 8 -21 -13
-225 -219z"/>
<path d="M3419 1603 c-13 -16 -12 -17 4 -4 16 13 21 21 13 21 -2 0 -10 -8 -17
-17z"/>
<path d="M8810 1393 l-215 -218 218 215 c119 118 217 216 217 217 0 8 -20 -12
-220 -214z"/>
<path d="M9365 1390 c-115 -115 -208 -210 -205 -210 3 0 100 95 215 210 115
116 208 210 205 210 -3 0 -100 -94 -215 -210z"/>
<path d="M7605 1548 l-40 -43 43 40 c39 36 47 45 39 45 -2 0 -21 -19 -42 -42z"/>
<path d="M2870 1375 c-107 -107 -193 -195 -190 -195 3 0 93 88 200 195 107
107 193 195 190 195 -3 0 -93 -88 -200 -195z"/>
<path d="M2385 1368 l-190 -193 193 190 c178 176 197 195 189 195 -1 0 -88
-87 -192 -192z"/>
<path d="M1640 1423 l-125 -128 128 125 c70 69 127 126 127 127 0 8 -14 -6
-130 -124z"/>
<path d="M6789 1533 c-13 -16 -12 -17 4 -4 16 13 21 21 13 21 -2 0 -10 -8 -17
-17z"/>
<path d="M8380 1363 l-185 -188 188 185 c103 102 187 186 187 187 0 8 -18 -10
-190 -184z"/>
<path d="M3414 1518 l-19 -23 23 19 c21 18 27 26 19 26 -2 0 -12 -10 -23 -22z"/>
<path d="M8850 1353 l-175 -178 178 175 c164 162 182 180 174 180 -1 0 -81
-80 -177 -177z"/>
<path d="M2925 1348 l-170 -173 173 170 c160 158 177 175 169 175 -1 0 -79
-78 -172 -172z"/>
<path d="M9405 1348 l-170 -173 173 170 c160 158 177 175 169 175 -1 0 -79
-78 -172 -172z"/>
<path d="M2435 1338 l-160 -163 163 160 c89 88 162 161 162 162 0 8 -17 -9
-165 -159z"/>
<path d="M1665 1370 c-66 -66 -117 -120 -115 -120 3 0 59 54 125 120 66 66
117 120 115 120 -3 0 -59 -54 -125 -120z"/>
<path d="M8430 1333 l-155 -158 158 155 c86 85 157 156 157 157 0 8 -16 -8
-160 -154z"/>
<path d="M2985 1330 c-82 -82 -147 -150 -145 -150 3 0 73 68 155 150 82 83
147 150 145 150 -3 0 -73 -67 -155 -150z"/>
<path d="M8905 1330 c-82 -82 -147 -150 -145 -150 3 0 73 68 155 150 82 83
147 150 145 150 -3 0 -73 -67 -155 -150z"/>
<path d="M1720 1343 l-125 -128 128 125 c70 69 127 126 127 127 0 8 -14 -6
-130 -124z"/>
<path d="M1785 1328 l-140 -143 143 140 c132 130 147 145 139 145 -1 0 -65
-64 -142 -142z"/>
<path d="M1860 1323 l-145 -148 148 145 c137 134 152 150 144 150 -1 0 -67
-66 -147 -147z"/>
<path d="M2500 1323 l-145 -148 148 145 c137 134 152 150 144 150 -1 0 -67
-66 -147 -147z"/>
<path d="M2580 1323 l-145 -148 148 145 c81 80 147 146 147 147 0 8 -16 -7
-150 -144z"/>
<path d="M2660 1323 l-145 -148 148 145 c81 80 147 146 147 147 0 8 -16 -7
-150 -144z"/>
<path d="M3060 1323 l-145 -148 148 145 c81 80 147 146 147 147 0 8 -16 -7
-150 -144z"/>
<path d="M3140 1323 l-145 -148 148 145 c81 80 147 146 147 147 0 8 -16 -7
-150 -144z"/>
<path d="M8500 1323 l-145 -148 148 145 c137 134 152 150 144 150 -1 0 -67
-66 -147 -147z"/>
<path d="M8580 1323 l-145 -148 148 145 c81 80 147 146 147 147 0 8 -16 -7
-150 -144z"/>
<path d="M8660 1323 l-145 -148 148 145 c81 80 147 146 147 147 0 8 -16 -7
-150 -144z"/>
<path d="M8980 1323 l-145 -148 148 145 c137 134 152 150 144 150 -1 0 -67
-66 -147 -147z"/>
<path d="M9060 1323 l-145 -148 148 145 c137 134 152 150 144 150 -1 0 -67
-66 -147 -147z"/>
<path d="M9140 1323 l-145 -148 148 145 c81 80 147 146 147 147 0 8 -16 -7
-150 -144z"/>
<path d="M9445 1308 l-130 -133 133 130 c123 120 137 135 129 135 -1 0 -61
-60 -132 -132z"/>
<path d="M9485 1268 l-70 -73 73 70 c39 38 72 71 72 72 0 8 -11 -2 -75 -69z"/>
</g>
</svg>
